<?xml version="1.0" encoding="UTF-8"?>
<svg width="24px" height="24px" viewBox="0 0 24 24" version="1.1" xmlns="http://www.w3.org/2000/svg" xmlns:xlink="http://www.w3.org/1999/xlink">
    <title>CDS-LHN-Roles-icon-24x24</title>
    <g id="Page-1" stroke="none" stroke-width="1" fill="none" fill-rule="evenodd">
        <g id="CDS-LHN-Icons---#333333---SAME-SIZED-24x24" transform="translate(0.000000, -56.000000)" fill="#333333" fill-rule="nonzero">
            <g id="LHN-CDS-Icons" transform="translate(0.000000, 8.000000)">
                <g id="CDS-LHN-Roles-icon-24x24" transform="translate(0.000000, 48.000000)">
                    <path d="M10.2857143,0 C7.760984,0 5.71428571,2.04669829 5.71428571,4.57142857 C5.71428571,7.09615886 7.760984,9.14285714 10.2857143,9.14285714 C12.8104446,9.14285714 14.8571429,7.09615886 14.8571429,4.57142857 C14.8571429,2.04669829 12.8104446,0 10.2857143,0 Z M10.2857143,12.5714286 C6.696,12.5714286 0,14.3371429 0,17.7142857 L0,20.5714286 L10.622768,20.5714286 C10.406768,19.8468571 10.2857143,19.08 10.2857143,18.2857143 C10.2857143,16.136 11.1372857,14.1865714 12.5178571,12.75 C11.7087143,12.6311429 10.9451429,12.5714286 10.2857143,12.5714286 Z M17.2165177,12.5714286 C17.0690891,12.5714286 16.9457143,12.6818389 16.9285714,12.8281246 L16.7946423,13.9843749 C16.2414994,14.1763749 15.7423211,14.4677497 15.3080354,14.8437497 L14.2366069,14.379464 C14.1017497,14.3211783 13.9459109,14.374232 13.872768,14.502232 L12.8013394,16.3549109 C12.7281966,16.4829109 12.7617497,16.6452857 12.879464,16.7321429 L13.8013394,17.4151783 C13.7476251,17.6986069 13.7142857,17.9885714 13.7142857,18.2857143 C13.7142857,18.5828571 13.7464823,18.8717326 13.8013394,19.1540183 L12.881696,19.8392857 C12.7639817,19.9272857 12.7292857,20.0896606 12.8035714,20.2165177 L13.872768,22.0691966 C13.9459109,22.1971966 14.1039817,22.2480183 14.2388389,22.1897326 L15.3080354,21.7276789 C15.7411783,22.102536 16.2415006,22.3950537 16.7946423,22.5870537 L16.9285714,23.743304 C16.9445714,23.8907326 17.0690891,24 17.2165177,24 L19.3549109,24 C19.5023394,24 19.6257143,23.8895897 19.6428571,23.743304 L19.7767863,22.5870537 C20.3299291,22.3950537 20.8291074,22.1036789 21.2633931,21.7276789 L22.3348217,22.1919646 C22.4696789,22.2502503 22.6255177,22.1960537 22.6986606,22.0691966 L23.7700891,20.2165177 C23.843232,20.0885177 23.8096789,19.9261429 23.6919646,19.8392857 L22.7700891,19.1540183 C22.8249463,18.8717326 22.8571429,18.5828571 22.8571429,18.2857143 C22.8571429,17.9885714 22.8249463,17.699696 22.7700891,17.4174103 L23.6897326,16.7321429 C23.8074469,16.6441429 23.8421429,16.481768 23.7678571,16.3549109 L22.6986606,14.502232 C22.6255177,14.374232 22.4674469,14.3234103 22.3325897,14.381696 L21.2633931,14.8437497 C20.8302503,14.4688926 20.3299291,14.1763749 19.7767863,13.9843749 L19.6428571,12.8281246 C19.6268571,12.680696 19.5023394,12.5714286 19.3549109,12.5714286 L17.2165177,12.5714286 Z M18.2857143,16.2857143 C19.3897143,16.2857143 20.2857143,17.1805714 20.2857143,18.2857143 C20.2857143,19.3897143 19.3897143,20.2857143 18.2857143,20.2857143 C17.1817143,20.2857143 16.2857143,19.3897143 16.2857143,18.2857143 C16.2857143,17.1805714 17.1817143,16.2857143 18.2857143,16.2857143 Z" id="Shape"></path>
                </g>
            </g>
        </g>
    </g>
</svg>