<?xml version="1.0" encoding="UTF-8"?>
<svg width="24px" height="24px" viewBox="0 0 24 24" version="1.1" xmlns="http://www.w3.org/2000/svg" xmlns:xlink="http://www.w3.org/1999/xlink">
    <title>CDS-LHN-Permission-Mgmt-icon-24x24</title>
    <g id="Page-1" stroke="none" stroke-width="1" fill="none" fill-rule="evenodd">
        <g id="CDS-LHN-Icons---#333333---SAME-SIZED-24x24" transform="translate(0.000000, -392.000000)" fill="#333333" fill-rule="nonzero">
            <g id="LHN-CDS-Icons" transform="translate(0.000000, 8.000000)">
                <g id="CDS-LHN-Permission-Mgmt-icon-24x24" transform="translate(0.000000, 384.000000)">
                    <path d="M12,0 L0,4.36363636 C0,4.36363636 0,8.72727273 0,10.9090909 C0,19.4509091 8.58533333,23.4392727 12,24 C15.4146667,23.4392727 24,19.4509091 24,10.9090909 C24,8.72727273 24,4.36363636 24,4.36363636 L12,0 Z M12.0000002,3.55555556 C14.3891114,3.55555556 16.3333337,5.49977785 16.3333337,7.88888906 C16.3333337,10.2780003 14.3891114,12.2222226 12.0000002,12.2222226 C9.61088896,12.2222226 7.66666667,10.2780003 7.66666667,7.88888906 C7.66666667,5.49977785 9.61088896,3.55555556 12.0000002,3.55555556 Z M12.0000002,21.1522224 C10.2755557,20.6200002 7.15444449,18.7522224 5.43777778,15.3411112 C7.17000005,14.0344445 10.3066668,13.4444444 12.0000002,13.4444444 C13.6933336,13.4444444 16.8288892,14.0344445 18.5633337,15.3411112 C16.8455559,18.7522224 13.7244447,20.6200002 12.0000002,21.1522224 Z" id="Shape"></path>
                </g>
            </g>
        </g>
    </g>
</svg>