<?xml version="1.0" encoding="UTF-8"?>
<svg width="24px" height="24px" viewBox="0 0 24 24" version="1.1" xmlns="http://www.w3.org/2000/svg" xmlns:xlink="http://www.w3.org/1999/xlink">
    <title>CDS-TOTP-Config-icon-24x24</title>
    <g id="Page-1" stroke="none" stroke-width="1" fill="none" fill-rule="evenodd">
        <g id="CDS-LHN-Icons---#333333---SAME-SIZED-24x24" transform="translate(0.000000, -440.000000)" fill="#333333" fill-rule="nonzero">
            <g id="LHN-CDS-Icons" transform="translate(0.000000, 8.000000)">
                <g id="CDS-TOTP-Config-icon-24x24" transform="translate(0.000000, 432.000000)">
                    <g id="icons8-password-1-(1)-copy-2">
                        <path d="M5.83333333,0 C2.61166667,0 0,2.61166667 0,5.83333333 C0,9.055 2.61166667,11.6666667 5.83333333,11.6666667 C8.4755575,11.6666667 10.7051425,9.9091575 11.4225258,7.5 L15,7.5 L15,10 L18.3333333,10 L18.3333333,7.5 L20,7.5 L20,4.16666667 L11.4225258,4.16666667 C10.7051425,1.75750933 8.4755575,0 5.83333333,0 Z M5.83333333,3.33333333 C7.21416667,3.33333333 8.33333333,4.4525 8.33333333,5.83333333 C8.33333333,7.21416667 7.21416667,8.33333333 5.83333333,8.33333333 C4.4525,8.33333333 3.33333333,7.21416667 3.33333333,5.83333333 C3.33333333,4.4525 4.4525,3.33333333 5.83333333,3.33333333 Z" id="Shape"></path>
                    </g>
                    <g id="icons8-timesheet-copy" transform="translate(12.000000, 12.000000)">
                        <path d="M6,0 C2.7,0 0,2.7 0,6 C0,9.3 2.7,12 6,12 C9.3,12 12,9.3 12,6 C12,2.7 9.3,0 6,0 Z M6,2 C8.2,2 10,3.8 10,6 C10,8.2 8.2,10 6,10 C3.8,10 2,8.2 2,6 C2,3.8 3.8,2 6,2 Z M6.427734,3.117188 L4.828125,6.138672 L6.925781,8.236328 L7.986328,7.175781 L6.671875,5.861328 L7.753906,3.818359 L6.427734,3.117188 Z" id="Shape"></path>
                    </g>
                </g>
            </g>
        </g>
    </g>
</svg>