<?xml version="1.0" encoding="UTF-8"?>
<svg width="24px" height="24px" viewBox="0 0 24 24" version="1.1" xmlns="http://www.w3.org/2000/svg" xmlns:xlink="http://www.w3.org/1999/xlink">
    <title>CDS-LHN-Certificates-24x24</title>
    <g id="Page-1" stroke="none" stroke-width="1" fill="none" fill-rule="evenodd">
        <g id="CDS-LHN-Icons---#333333---SAME-SIZED-24x24" transform="translate(0.000000, -200.000000)" fill="#333333" fill-rule="nonzero">
            <g id="LHN-CDS-Icons" transform="translate(0.000000, 8.000000)">
                <g id="CDS-LHN-Certificates-24x24" transform="translate(0.000000, 192.000000)">
                    <path d="M12,0 L9.84161891,2.08593753 L6.87144884,1.66619324 L6.35156247,4.62357949 L3.70099429,6.0298296 L5.01775571,8.72727273 L3.70099429,11.4247156 L6.35156247,12.8309662 L6.87144884,15.788352 L9.84375055,15.3686084 L12,17.4545455 L14.1583811,15.3686084 L17.1306818,15.788352 L17.6484371,12.8309662 L20.3011364,11.4247156 L18.9822447,8.72727273 L20.2990058,6.0298296 L17.6484371,4.62357949 L17.1285513,1.66619324 L14.1562495,2.08593753 L12,0 Z M4.34446025,15.2009942 L0,19.5454545 L3.27272727,20.6363636 L4.36363636,23.9090909 L9.37073869,18.9019884 L9.10227273,18.6463065 L7.76420455,18.8338065 C7.63329545,18.852352 7.50514778,18.8615058 7.37642051,18.8615058 C6.02805687,18.8615058 4.87938065,17.896528 4.64701702,16.5688916 L4.41477273,15.2393462 L4.34446025,15.2009942 Z M19.6555396,15.2009942 L19.5852273,15.2393462 L19.3529825,16.5688916 C19.119528,17.8976189 17.9719429,18.8615058 16.6235793,18.8615058 C16.494852,18.8615058 16.3667051,18.852352 16.2357949,18.8338065 L14.8977273,18.6463065 L14.6292611,18.9041189 L19.6363636,23.9090909 L20.7272727,20.6363636 L24,19.5454545 L19.6555396,15.2009942 Z" id="Shape"></path>
                </g>
            </g>
        </g>
    </g>
</svg>