<?xml version="1.0" encoding="UTF-8"?>
<svg width="24px" height="24px" viewBox="0 0 24 24" version="1.1" xmlns="http://www.w3.org/2000/svg" xmlns:xlink="http://www.w3.org/1999/xlink">
    <title>CDS-LHN-Calendars-icon-24x24</title>
    <g id="Page-1" stroke="none" stroke-width="1" fill="none" fill-rule="evenodd">
        <g id="CDS-LHN-Icons---#333333---SAME-SIZED-24x24" transform="translate(0.000000, -344.000000)" fill="#333333" fill-rule="nonzero">
            <g id="LHN-CDS-Icons" transform="translate(0.000000, 8.000000)">
                <g id="CDS-LHN-Calendars-icon-24x24" transform="translate(0.000000, 336.000000)">
                    <path d="M5,0 L5,4 L7,4 L7,0 L5,0 Z M17,0 L17,4 L19,4 L19,0 L17,0 Z M1,3 C0.449219,3 0,3.449219 0,4 L0,7 C0,7.550781 0.449219,8 1,8 L1,24 L23,24 L23,8 C23.550781,8 24,7.550781 24,7 L24,4 C24,3.449219 23.550781,3 23,3 L20,3 L20,5 L16,5 L16,3 L8,3 L8,5 L4,5 L4,3 L1,3 Z M3,8 L21,8 L21,22 L3,22 L3,8 Z M5,10 L5,12 L7,12 L7,10 L5,10 Z M9,10 L9,12 L11,12 L11,10 L9,10 Z M13,10 L13,12 L15,12 L15,10 L13,10 Z M17,10 L17,12 L19,12 L19,10 L17,10 Z M5,14 L5,16 L7,16 L7,14 L5,14 Z M9,14 L9,16 L11,16 L11,14 L9,14 Z M13,14 L13,16 L15,16 L15,14 L13,14 Z M17,14 L17,16 L19,16 L19,14 L17,14 Z M5,18 L5,20 L7,20 L7,18 L5,18 Z M9,18 L9,20 L11,20 L11,18 L9,18 Z M13,18 L13,20 L15,20 L15,18 L13,18 Z M17,18 L17,20 L19,20 L19,18 L17,18 Z" id="Shape"></path>
                </g>
            </g>
        </g>
    </g>
</svg>