<?xml version="1.0" encoding="UTF-8"?>
<svg width="24px" height="24px" viewBox="0 0 24 24" version="1.1" xmlns="http://www.w3.org/2000/svg" xmlns:xlink="http://www.w3.org/1999/xlink">
    <title>CDS-LHN-Directory Svcs-24x24</title>
    <g id="Page-1" stroke="none" stroke-width="1" fill="none" fill-rule="evenodd">
        <g id="CDS-LHN-Icons---#333333---SAME-SIZED-24x24" transform="translate(0.000000, -9.000000)" fill="#333333" fill-rule="nonzero">
            <g id="LHN-CDS-Icons" transform="translate(0.000000, 8.000000)">
                <g id="CDS-LHN-Directory-Svcs-24x24" transform="translate(0.000000, 1.000000)">
                    <path d="M12.5568749,3.84 C12.5117549,4.15392 12.48,4.4736 12.48,4.8 C12.48,5.1264 12.5117549,5.44608 12.5568749,5.76 L12.5563272,5.759 L4.8,5.76 L4.8,5.76 L12.5568749,5.76 L12.5563272,5.759 L12.96,5.76 C12.9215625,8.2525 13.8019531,9.85460937 15.6011719,10.5663281 C17.4003906,11.2780469 18.92,11.5959375 20.16,11.52 L20.16,21.12 L20.1618749,21.12 L20.1618749,11.4431251 C20.8396349,11.3461651 21.48288,11.1479098 22.08,10.8637498 L22.08,10.8637498 L22.08,23.04 L2.88,23.04 L2.87932721,18.32 L14.3863272,18.32 L14.3863272,16.32 L2.87932721,16.32 L2.87932721,18.32 L0.94632721,18.32 L0.94632721,16.32 L2.87932721,16.32 L2.87932721,14.479 L14.3863272,14.48 L14.3863272,12.48 L2.87932721,12.479 L2.87932721,14.479 L0.94632721,14.48 L0.94632721,12.48 L2.87932721,12.479 L2.87932721,10.64 L10.5463272,10.64 L10.5463272,8.64 L2.87932721,8.64 L2.87932721,10.64 L0.94632721,10.64 L0.94632721,8.64 L2.87932721,8.64 L2.88,3.84 Z" id="Combined-Shape"></path>
                    <path d="M20.0981251,0 C20.2219651,0 20.3256,0.092745 20.34,0.215625005 L20.34,0.215625005 L20.4525005,1.18687498 C20.9171405,1.34815498 21.3374102,1.59386995 21.7012502,1.90874995 L21.7012502,1.90874995 L22.6012502,1.51874995 C22.7145302,1.46979005 22.8454349,1.51531498 22.9068749,1.62187498 L22.9068749,1.62187498 L23.8068749,3.17812502 C23.8692749,3.28468502 23.8401302,3.42108 23.7412502,3.495 L23.7412502,3.495 L22.9668749,4.07062502 C23.0129549,4.30774502 23.04,4.5504 23.04,4.8 C23.04,5.0496 23.0129549,5.29225498 22.9668749,5.52937498 L22.9668749,5.52937498 L23.7412502,6.105 C23.8401302,6.17796 23.8683149,6.31435498 23.8068749,6.42187498 L23.8068749,6.42187498 L22.9068749,7.97812502 C22.8454349,8.08468502 22.7145302,8.13021005 22.6012502,8.08125005 L22.6012502,8.08125005 L21.7012502,7.69125005 C21.3374102,8.00613005 20.9171405,8.25184502 20.4525005,8.41312502 L20.4525005,8.41312502 L20.34,9.38437498 C20.3256,9.50725498 20.2219651,9.6 20.0981251,9.6 L20.0981251,9.6 L18.3018749,9.6 C18.1780349,9.6 18.0744,9.50725498 18.06,9.38437498 L18.06,9.38437498 L17.9474995,8.41312502 C17.4828595,8.25184502 17.0625898,8.00709005 16.6987498,7.69125005 L16.6987498,7.69125005 L15.7987498,8.07937498 C15.6854698,8.12833498 15.5545651,8.08564502 15.4931251,7.97812502 L15.4931251,7.97812502 L14.5931251,6.42187498 C14.5307251,6.31531498 14.5598698,6.17892 14.6587498,6.105 L14.6587498,6.105 L15.4331251,5.52937498 C15.3870451,5.29225498 15.36,5.0496 15.36,4.8 C15.36,4.5504 15.3870451,4.30774502 15.4331251,4.07062502 L15.4331251,4.07062502 L14.6587498,3.495 C14.5598698,3.42108 14.5316851,3.28468502 14.5931251,3.17812502 L14.5931251,3.17812502 L15.4931251,1.62187498 C15.5545651,1.51531498 15.6854698,1.46979005 15.7987498,1.51874995 L15.7987498,1.51874995 L16.6987498,1.90874995 C17.0625898,1.59386995 17.4828595,1.34815498 17.9474995,1.18687498 L17.9474995,1.18687498 L18.06,0.215625005 C18.0744,0.092745 18.1780349,0 18.3018749,0 L18.3018749,0 Z M19.2,2.88 C18.14016,2.88 17.28,3.7392 17.28,4.8 C17.28,5.85984 18.14016,6.72 19.2,6.72 C20.25984,6.72 21.12,5.85984 21.12,4.8 C21.12,3.7392 20.25984,2.88 19.2,2.88 Z" id="Combined-Shape"></path>
                </g>
            </g>
        </g>
    </g>
</svg>