<?xml version="1.0" encoding="UTF-8"?>
<svg width="24px" height="24px" viewBox="0 0 24 24" version="1.1" xmlns="http://www.w3.org/2000/svg" xmlns:xlink="http://www.w3.org/1999/xlink">
    <title>CDS-LHN-Email-Servers-24x24</title>
    <g id="Page-1" stroke="none" stroke-width="1" fill="none" fill-rule="evenodd">
        <g id="CDS-LHN-Icons---#333333---SAME-SIZED-24x24" transform="translate(0.000000, -296.000000)" fill="#333333" fill-rule="nonzero">
            <g id="LHN-CDS-Icons" transform="translate(0.000000, 8.000000)">
                <g id="CDS-LHN-Email-Servers-24x24" transform="translate(0.000000, 288.000000)">
                    <g id="Server-Copy" transform="translate(12.000000, 9.000000)">
                        <path d="M0,0 L0,15 L12,15 L12,0 L0,0 Z M1.625,2 L10.625,2 L10.625,13 L1.625,13 L1.625,2 Z M3.0625,4 L3.0625,6 L9.0625,6 L9.0625,4 L3.0625,4 Z M3.0625,7 L3.0625,9 L9.0625,9 L9.0625,7 L3.0625,7 Z M5.0625,10 L5.0625,12 L7.0625,12 L7.0625,10 L5.0625,10 Z" id="Shape"></path>
                    </g>
                    <g id="envelope-carved-copy">
                        <path d="M0,0 L0,1.5820312 L10,8 L20,1.5820312 L20,0 L0,0 Z M0,3.7519531 L0,16 L9.294922,16 C9.105922,15.366 9,14.695 9,14 C9,12.375 9.559281,10.883312 10.488281,9.695312 L10,10 L0,3.7519531 Z M20,3.7519531 L14.5625,7.148438 C15.0265,7.051437 15.507,7 16,7 C17.488,7 18.866,7.467766 20,8.259766 L20,3.7519531 Z" id="Shape"></path>
                    </g>
                </g>
            </g>
        </g>
    </g>
</svg>