<?xml version="1.0" encoding="UTF-8"?>
<svg width="16px" height="16px" viewBox="0 0 24 24" version="1.1" xmlns="http://www.w3.org/2000/svg" xmlns:xlink="http://www.w3.org/1999/xlink">
    <title>CDS-LHN-Groups-icon-24x24</title>
    <g id="Page-1" stroke="none" stroke-width="1" fill="none" fill-rule="evenodd">
        <g id="CDS-LHN-Icons---#333333---SAME-SIZED-24x24" transform="translate(0.000000, -104.000000)" fill="#333333" fill-rule="nonzero">
            <g id="LHN-CDS-Icons" transform="translate(0.000000, 8.000000)">
                <g id="CDS-LHN-Groups-icon-24x24" transform="translate(0.000000, 96.000000)">
                    <path d="M11.8888889,0 C9.46497249,0 7.5,1.96546995 7.5,4.39 C7.5,6.81453005 9.46497249,8.78 11.8888889,8.78 C14.3128053,8.78 16.2777778,6.81453005 16.2777778,4.39 C16.2777778,1.96546995 14.3128053,0 11.8888889,0 Z M3.38888889,3.375 C1.51725724,3.375 -8.5975671e-13,4.8927547 -8.5975671e-13,6.765 C-8.5975671e-13,8.6372453 1.51725724,10.155 3.38888889,10.155 C4.2876781,10.155 5.14965525,9.79784031 5.7851952,9.16209199 C6.42073515,8.52634367 6.77777778,7.6640839 6.77777778,6.765 C6.77777778,5.8659161 6.42073515,5.00365633 5.7851952,4.36790801 C5.14965525,3.73215969 4.2876781,3.375 3.38888889,3.375 Z M20.3888889,3.375 C18.5172572,3.375 17,4.8927547 17,6.765 C17,8.6372453 18.5172572,10.155 20.3888889,10.155 C21.2876781,10.155 22.1496553,9.79784031 22.7851952,9.16209199 C23.4207352,8.52634367 23.7777778,7.6640839 23.7777778,6.765 C23.7777778,4.8927547 22.2605205,3.375 20.3888889,3.375 Z M12,11.125 C9.664,11.125 5,13.1149107 5,17.0625 L5,24 L19,24 L19,17.0625 C19,13.1149107 14.336,11.125 12,11.125 Z M3.8984375,14.3093257 C2.3174375,14.7069075 -6.58362254e-13,16.4868093 -6.58362254e-13,18.6311437 L-6.58362254e-13,23.9999997 L3,23.9999997 L3,18.2969828 C3,16.7310972 3.3454375,15.4173405 3.8984375,14.3093257 Z M20.101562,14.3093257 C20.654563,15.4173405 21,16.7310972 21,18.2969828 L21,23.9999997 L24,23.9999997 L24,18.6311437 C24,16.4868093 21.682562,14.7069075 20.101562,14.3093257 Z" id="Shape"></path>
                </g>
            </g>
        </g>
    </g>
</svg>