<?xml version="1.0" encoding="UTF-8"?>
<svg id="icon"
  xmlns="http://www.w3.org/2000/svg" width="24px" height="24px" viewBox="0 0 24 24">
  <defs>
    <style>.cls-1{fill:#333;}</style>
  </defs>
  <path class="cls-1" d="M8,14.5V13h4v.71a6,6,0,0,1,2.63-2.21H14V10h6v1.5h-.61A5.94,5.94,0,0,1,22,13.66V2H2V17h9a6,6,0,0,1,.55-2.5ZM14,4h6V5.5H14Zm0,3h6V8.5H14ZM8,4h4V5.5H8ZM8,7h4V8.5H8Zm0,3h4v1.5H8ZM6,14.5H4V13H6Zm0-3H4V10H6Zm0-3H4V7H6Zm0-3H4V4H6ZM21.72,18.37l-.8-.61a4.16,4.16,0,0,0,0-1.52l.8-.61a.24.24,0,0,0,.07-.33l-.94-1.63a.25.25,0,0,0-.31-.11L19.6,14a3.92,3.92,0,0,0-1.3-.75l-.11-1a.27.27,0,0,0-.26-.23H16.07a.27.27,0,0,0-.26.23l-.11,1a3.92,3.92,0,0,0-1.3.75l-.94-.41a.26.26,0,0,0-.32.11l-.93,1.63a.24.24,0,0,0,.07.33l.8.61a4.16,4.16,0,0,0,0,1.52l-.8.61a.24.24,0,0,0-.07.33l.94,1.63a.24.24,0,0,0,.31.1l.94-.4a3.92,3.92,0,0,0,1.3.75l.11,1a.27.27,0,0,0,.26.23h1.86a.27.27,0,0,0,.26-.23l.11-1A3.92,3.92,0,0,0,19.6,20l.94.41a.26.26,0,0,0,.32-.11l.93-1.63A.24.24,0,0,0,21.72,18.37ZM17,19a2,2,0,1,1,2-2A2,2,0,0,1,17,19Z"/>
</svg>
