<?xml version="1.0" encoding="UTF-8"?>
<svg id="icon" width="24px" height="24px" viewBox="0 0 24 24" fill="none"
  xmlns="http://www.w3.org/2000/svg">
  <path fill-rule="evenodd" clip-rule="evenodd" d="M13.9 2C11.241 2 9.1 4.039 9.1 6.57143V7.33333H7.5V11L14 18H20.3V7.33333H18.7V6.57143C18.7 4.039 16.559 2 13.9 2Z" fill="#1776BF"/>
  <path fill-rule="evenodd" clip-rule="evenodd" d="M13.9002 3.52393C15.7211 3.52393 17.1002 4.8373 17.1002 6.57154V7.33345H10.7002V6.57154C10.7002 4.8373 12.0792 3.52393 13.9002 3.52393Z" fill="white"/>
  <path fill-rule="evenodd" clip-rule="evenodd" d="M13.8998 11.1426C14.7798 11.1426 15.4998 11.8283 15.4998 12.6664C15.4998 13.5045 14.7798 14.1902 13.8998 14.1902C13.0198 14.1902 12.2998 13.5045 12.2998 12.6664C12.2998 11.8283 13.0198 11.1426 13.8998 11.1426Z" fill="white"/>
  <path d="M8.14399 12.6594L7.78066 12.2689L7.41445 12.6567L3.6365 16.6567L2.84 17.5H4H5H6.67513V22.0504V22.5504H7.17513H8.38031H8.88031V22.0504V17.5H11H11.5H12.6482L11.866 16.6594L8.14399 12.6594Z" fill="#1776BF" stroke="white"/>
</svg>
